name ./resultDataOpenSim/trcMotMarkerGrf/sub09/grf-02-03.mot
datacolumns 19
datarows 22
range 1.41600000 1.50000000
endheader

                time	     ground_force_vx	     ground_force_vy	     ground_force_vz	     ground_force_px	     ground_force_py	     ground_force_pz	   l_ground_force_vx	   l_ground_force_vy	   l_ground_force_vz	   l_ground_force_px	   l_ground_force_py	   l_ground_force_pz	     ground_torque_x	     ground_torque_y	     ground_torque_z	   l_ground_torque_x	   l_ground_torque_y	   l_ground_torque_z	
          1.41600000	        -43.98652998	        446.98896813	        -10.83567484	          1.00990167	          0.00000000	          0.09543137	          0.00000000	          0.00000000	          0.00000000	          0.00000000	          0.00000000	          0.00000000	          0.00000000	          3.56950711	          0.00000000	          0.00000000	          0.00000000	          0.00000000	
          1.42000000	        -45.32584760	        443.61258265	        -12.79868872	          1.01317259	          0.00000000	          0.09552745	          0.00000000	          0.00000000	          0.00000000	          0.00000000	          0.00000000	          0.00000000	          0.00000000	          3.54298329	          0.00000000	          0.00000000	          0.00000000	          0.00000000	
          1.42400000	        -44.29974204	        440.91265952	        -14.57627889	          1.01584393	          0.00000000	          0.09563256	          0.00000000	          0.00000000	          0.00000000	          0.00000000	          0.00000000	          0.00000000	          0.00000000	          3.42552263	          0.00000000	          0.00000000	          0.00000000	          0.00000000	
          1.42800000	        -41.09121799	        438.92056761	        -15.65704888	          1.01794141	          0.00000000	          0.09572736	          0.00000000	          0.00000000	          0.00000000	          0.00000000	          0.00000000	          0.00000000	          0.00000000	          3.25325486	          0.00000000	          0.00000000	          0.00000000	          0.00000000	
          1.43200000	        -36.44905346	        437.61758949	        -15.73839634	          1.01959368	          0.00000000	          0.09579909	          0.00000000	          0.00000000	          0.00000000	          0.00000000	          0.00000000	          0.00000000	          0.00000000	          3.07383643	          0.00000000	          0.00000000	          0.00000000	          0.00000000	
          1.43600000	        -31.45740954	        436.93375747	        -14.77005341	          1.02098201	          0.00000000	          0.09584528	          0.00000000	          0.00000000	          0.00000000	          0.00000000	          0.00000000	          0.00000000	          0.00000000	          2.93450394	          0.00000000	          0.00000000	          0.00000000	          0.00000000	
          1.44000000	        -27.24970222	        436.78593918	        -12.94007088	          1.02229501	          0.00000000	          0.09586291	          0.00000000	          0.00000000	          0.00000000	          0.00000000	          0.00000000	          0.00000000	          0.00000000	          2.87145560	          0.00000000	          0.00000000	          0.00000000	          0.00000000	
          1.44400000	        -24.72174095	        437.11354185	        -10.61486030	          1.02369905	          0.00000000	          0.09584724	          0.00000000	          0.00000000	          0.00000000	          0.00000000	          0.00000000	          0.00000000	          0.00000000	          2.90209923	          0.00000000	          0.00000000	          0.00000000	          0.00000000	
          1.44800000	        -24.30510873	        437.88416176	         -8.25480888	          1.02527908	          0.00000000	          0.09578846	          0.00000000	          0.00000000	          0.00000000	          0.00000000	          0.00000000	          0.00000000	          0.00000000	          3.02097011	          0.00000000	          0.00000000	          0.00000000	          0.00000000	
          1.45200000	        -25.86153093	        439.06354412	         -6.32463842	          1.02702473	          0.00000000	          0.09568568	          0.00000000	          0.00000000	          0.00000000	          0.00000000	          0.00000000	          0.00000000	          0.00000000	          3.20021432	          0.00000000	          0.00000000	          0.00000000	          0.00000000	
          1.45600000	        -28.72132123	        440.58095721	         -5.21022156	          1.02884932	          0.00000000	          0.09556027	          0.00000000	          0.00000000	          0.00000000	          0.00000000	          0.00000000	          0.00000000	          0.00000000	          3.39548230	          0.00000000	          0.00000000	          0.00000000	          0.00000000	
          1.46000000	        -31.85063298	        442.33897437	         -5.15176387	          1.03060132	          0.00000000	          0.09544332	          0.00000000	          0.00000000	          0.00000000	          0.00000000	          0.00000000	          0.00000000	          0.00000000	          3.55695063	          0.00000000	          0.00000000	          0.00000000	          0.00000000	
          1.46400000	        -34.11826674	        444.25691655	         -6.20101900	          1.03209675	          0.00000000	          0.09535950	          0.00000000	          0.00000000	          0.00000000	          0.00000000	          0.00000000	          0.00000000	          0.00000000	          3.64312792	          0.00000000	          0.00000000	          0.00000000	          0.00000000	
          1.46800000	        -34.60378536	        446.29078502	         -8.20410161	          1.03317243	          0.00000000	          0.09532088	          0.00000000	          0.00000000	          0.00000000	          0.00000000	          0.00000000	          0.00000000	          0.00000000	          3.63330282	          0.00000000	          0.00000000	          0.00000000	          0.00000000	
          1.47200000	        -32.84823086	        448.41270524	        -10.82135686	          1.03374588	          0.00000000	          0.09532667	          0.00000000	          0.00000000	          0.00000000	          0.00000000	          0.00000000	          0.00000000	          0.00000000	          3.53432500	          0.00000000	          0.00000000	          0.00000000	          0.00000000	
          1.47600000	        -28.95730750	        450.59936539	        -13.59531070	          1.03386673	          0.00000000	          0.09537186	          0.00000000	          0.00000000	          0.00000000	          0.00000000	          0.00000000	          0.00000000	          0.00000000	          3.37934847	          0.00000000	          0.00000000	          0.00000000	          0.00000000	
          1.48000000	        -23.53895055	        452.86238536	        -16.05004262	          1.03367595	          0.00000000	          0.09543881	          0.00000000	          0.00000000	          0.00000000	          0.00000000	          0.00000000	          0.00000000	          0.00000000	          3.21927284	          0.00000000	          0.00000000	          0.00000000	          0.00000000	
          1.48400000	        -17.52490845	        455.27607464	        -17.78822209	          1.03333671	          0.00000000	          0.09549581	          0.00000000	          0.00000000	          0.00000000	          0.00000000	          0.00000000	          0.00000000	          0.00000000	          3.11012690	          0.00000000	          0.00000000	          0.00000000	          0.00000000	
          1.48800000	        -11.92876595	        457.96070961	        -18.55815272	          1.03301870	          0.00000000	          0.09551414	          0.00000000	          0.00000000	          0.00000000	          0.00000000	          0.00000000	          0.00000000	          0.00000000	          3.10028794	          0.00000000	          0.00000000	          0.00000000	          0.00000000	
          1.49200000	         -7.58342716	        461.03916761	        -18.28428241	          1.03286352	          0.00000000	          0.09547664	          0.00000000	          0.00000000	          0.00000000	          0.00000000	          0.00000000	          0.00000000	          0.00000000	          3.22037479	          0.00000000	          0.00000000	          0.00000000	          0.00000000	
          1.49600000	         -4.92899425	        464.59958183	        -17.06749467	          1.03295266	          0.00000000	          0.09537312	          0.00000000	          0.00000000	          0.00000000	          0.00000000	          0.00000000	          0.00000000	          0.00000000	          3.47711341	          0.00000000	          0.00000000	          0.00000000	          0.00000000	
          1.50000000	         -3.92352561	        468.67598736	        -15.15870201	          1.03327133	          0.00000000	          0.09519851	          0.00000000	          0.00000000	          0.00000000	          0.00000000	          0.00000000	          0.00000000	          0.00000000	          3.85155017	          0.00000000	          0.00000000	          0.00000000	          0.00000000	
